<svg width="412" height="46" viewBox="0 0 412 46" fill="none" xmlns="http://www.w3.org/2000/svg">
<path d="M407.8 0.75H4.2H4.18869C3.63821 0.749999 3.20974 0.749998 2.86605 0.778079C2.51708 0.80659 2.23355 0.865292 1.97852 0.995235C1.55516 1.21095 1.21095 1.55516 0.995235 1.97852C0.865292 2.23355 0.80659 2.51708 0.778079 2.86605C0.749998 3.20974 0.749999 3.63821 0.75 4.18869V4.2V41.8V41.8113C0.749999 42.3618 0.749998 42.7903 0.778079 43.134C0.80659 43.4829 0.865292 43.7664 0.995235 44.0215C1.21095 44.4448 1.55516 44.7891 1.97852 45.0048C2.23355 45.1347 2.51708 45.1934 2.86605 45.2219C3.20975 45.25 3.63822 45.25 4.1887 45.25H4.20002H407.8H407.811C408.362 45.25 408.79 45.25 409.134 45.2219C409.483 45.1934 409.766 45.1347 410.021 45.0048C410.445 44.7891 410.789 44.4448 411.005 44.0215C411.135 43.7664 411.193 43.4829 411.222 43.134C411.25 42.7901 411.25 42.3615 411.25 41.8107V41.8V4.2V4.18933C411.25 3.63854 411.25 3.20988 411.222 2.86605C411.193 2.51708 411.135 2.23355 411.005 1.97852C410.789 1.55516 410.445 1.21095 410.021 0.995235C409.766 0.865292 409.483 0.80659 409.134 0.778079C408.79 0.749998 408.362 0.749999 407.811 0.75H407.8Z" fill="#1F1B1D" stroke="#020204" stroke-width="0.5"/>
<path d="M4.2 1.5H407.8C408.368 1.5 408.764 1.50039 409.073 1.52559C409.375 1.55031 409.549 1.5964 409.681 1.66349C409.963 1.8073 410.193 2.03677 410.337 2.31901C410.404 2.45069 410.45 2.62454 410.474 2.92712C410.5 3.23554 410.5 3.6317 410.5 4.2V41.8C410.5 42.3683 410.5 42.7645 410.474 43.0729C410.45 43.3755 410.404 43.5493 410.337 43.681C410.193 43.9632 409.963 44.1927 409.681 44.3365C409.549 44.4036 409.375 44.4497 409.073 44.4744C408.764 44.4996 408.368 44.5 407.8 44.5H4.20002C3.63171 44.5 3.23555 44.4996 2.92712 44.4744C2.62454 44.4497 2.45069 44.4036 2.31901 44.3365C2.03677 44.1927 1.8073 43.9632 1.66349 43.681C1.5964 43.5493 1.55031 43.3755 1.52559 43.0729C1.50039 42.7645 1.5 42.3683 1.5 41.8V4.2C1.5 3.6317 1.50039 3.23554 1.52559 2.92712C1.55031 2.62454 1.5964 2.45069 1.66349 2.31901C1.8073 2.03677 2.03677 1.8073 2.31901 1.66349C2.45069 1.5964 2.62454 1.55031 2.92712 1.52559C3.23554 1.50039 3.6317 1.5 4.2 1.5Z" fill="#1F1B1D" stroke="#4C494A"/>
<path d="M17.1299 28H18.7676V18.8403H17.1299V28ZM25.6484 28H27.2861L28.6318 22.9727H28.7397L30.0918 28H31.7485L33.6274 21.062H32.0596L30.9106 26.2734H30.8027L29.457 21.062H27.9526L26.6196 26.2734H26.5117L25.3564 21.062H23.7695L25.6484 28ZM36.7061 28.1143C37.6201 28.1143 38.3564 27.7207 38.7373 27.0479H38.8452V28H40.4067V23.2583C40.4067 21.792 39.4038 20.9287 37.6201 20.9287C35.9697 20.9287 34.8525 21.7031 34.7002 22.8711L34.6938 22.9282H36.1855L36.1919 22.9028C36.3506 22.4458 36.8203 22.1855 37.5439 22.1855C38.3945 22.1855 38.8452 22.5664 38.8452 23.2583V23.855L37.0615 23.9629C35.373 24.0645 34.4272 24.7881 34.4272 26.0259V26.0386C34.4272 27.3018 35.3857 28.1143 36.7061 28.1143ZM35.9888 25.9624V25.9497C35.9888 25.3784 36.4014 25.0547 37.2837 24.9976L38.8452 24.896V25.4546C38.8452 26.2798 38.1406 26.9019 37.1885 26.9019C36.4902 26.9019 35.9888 26.5527 35.9888 25.9624ZM42.3047 28H43.8853V23.9565C43.8853 22.9155 44.4692 22.2554 45.4087 22.2554C46.3672 22.2554 46.8052 22.8013 46.8052 23.8804V28H48.3857V23.5122C48.3857 21.8618 47.5415 20.9287 45.9927 20.9287C44.9897 20.9287 44.3232 21.3794 43.9932 22.1221H43.8853V21.062H42.3047V28ZM52.9814 28.0317C53.2861 28.0317 53.5781 28.0063 53.8066 27.9619V26.7432C53.6162 26.7622 53.4956 26.7686 53.2734 26.7686C52.6133 26.7686 52.3403 26.4766 52.3403 25.7847V22.2871H53.8066V21.062H52.3403V19.3608H50.7344V21.062H49.6553V22.2871H50.7344V26.1592C50.7344 27.4985 51.3882 28.0317 52.9814 28.0317ZM61.5762 28.0317C61.8809 28.0317 62.1729 28.0063 62.4014 27.9619V26.7432C62.2109 26.7622 62.0903 26.7686 61.8682 26.7686C61.208 26.7686 60.9351 26.4766 60.9351 25.7847V22.2871H62.4014V21.062H60.9351V19.3608H59.3291V21.062H58.25V22.2871H59.3291V26.1592C59.3291 27.4985 59.9829 28.0317 61.5762 28.0317ZM66.9082 28.1396C68.9839 28.1396 70.2471 26.7812 70.2471 24.5342V24.5215C70.2471 22.2871 68.9775 20.9287 66.9082 20.9287C64.8452 20.9287 63.5693 22.2935 63.5693 24.5215V24.5342C63.5693 26.7812 64.8262 28.1396 66.9082 28.1396ZM66.9082 26.8574C65.8101 26.8574 65.1816 26.0005 65.1816 24.5405V24.5278C65.1816 23.0679 65.8101 22.2046 66.9082 22.2046C68 22.2046 68.6284 23.0679 68.6284 24.5278V24.5405C68.6284 26.0005 68.0063 26.8574 66.9082 26.8574ZM75.8076 28H77.3882V22.2871H78.8672V21.062H77.3628V20.4653C77.3628 19.8052 77.6484 19.4497 78.3911 19.4497C78.6133 19.4497 78.8101 19.4624 78.9307 19.4814V18.377C78.6768 18.3325 78.3911 18.3135 78.0547 18.3135C76.5122 18.3135 75.8076 18.9927 75.8076 20.3765V21.062H74.6714V22.2871H75.8076V28ZM83.1328 28.1396C85.2085 28.1396 86.4717 26.7812 86.4717 24.5342V24.5215C86.4717 22.2871 85.2021 20.9287 83.1328 20.9287C81.0698 20.9287 79.7939 22.2935 79.7939 24.5215V24.5342C79.7939 26.7812 81.0508 28.1396 83.1328 28.1396ZM83.1328 26.8574C82.0347 26.8574 81.4062 26.0005 81.4062 24.5405V24.5278C81.4062 23.0679 82.0347 22.2046 83.1328 22.2046C84.2246 22.2046 84.853 23.0679 84.853 24.5278V24.5405C84.853 26.0005 84.231 26.8574 83.1328 26.8574ZM91.0356 28.1396C92.7939 28.1396 93.8159 27.1938 94.0444 25.772L94.0571 25.7212L92.5654 25.7275L92.5527 25.7529C92.356 26.4829 91.8545 26.8574 91.0356 26.8574C89.9629 26.8574 89.3218 25.9941 89.3218 24.5215V24.5088C89.3218 23.0552 89.9565 22.2046 91.0356 22.2046C91.8989 22.2046 92.4131 22.687 92.5591 23.3599L92.5654 23.3789H94.0571V23.3535C93.8794 21.9189 92.813 20.9287 91.0293 20.9287C88.9409 20.9287 87.7158 22.2681 87.7158 24.5088V24.5215C87.7158 26.7876 88.9473 28.1396 91.0356 28.1396ZM97.8594 28.1396C98.8623 28.1396 99.5669 27.689 99.8906 26.9463H99.9985V28H101.579V21.062H99.9985V25.1055C99.9985 26.1465 99.4526 26.8066 98.4307 26.8066C97.4785 26.8066 97.0786 26.2607 97.0786 25.188V21.062H95.498V25.5498C95.498 27.2002 96.2979 28.1396 97.8594 28.1396ZM106.13 28.1396C107.838 28.1396 109.076 27.2573 109.076 25.937V25.9243C109.076 24.915 108.435 24.3374 107.076 24.0327L105.953 23.7852C105.204 23.6138 104.912 23.3662 104.912 22.96V22.9536C104.912 22.4331 105.419 22.0903 106.124 22.0903C106.867 22.0903 107.324 22.4458 107.438 22.8838L107.444 22.9028H108.93V22.8901C108.828 21.7666 107.819 20.9287 106.13 20.9287C104.493 20.9287 103.35 21.792 103.35 23.0425V23.0488C103.35 24.0708 103.979 24.6929 105.299 24.9849L106.422 25.2388C107.184 25.4102 107.489 25.6768 107.489 26.083V26.0957C107.489 26.6162 106.943 26.9717 106.156 26.9717C105.369 26.9717 104.905 26.6353 104.74 26.1528L104.734 26.1401H103.166V26.1528C103.299 27.3271 104.366 28.1396 106.13 28.1396ZM117.131 28.1396C119.207 28.1396 120.47 26.7812 120.47 24.5342V24.5215C120.47 22.2871 119.2 20.9287 117.131 20.9287C115.068 20.9287 113.792 22.2935 113.792 24.5215V24.5342C113.792 26.7812 115.049 28.1396 117.131 28.1396ZM117.131 26.8574C116.033 26.8574 115.404 26.0005 115.404 24.5405V24.5278C115.404 23.0679 116.033 22.2046 117.131 22.2046C118.223 22.2046 118.851 23.0679 118.851 24.5278V24.5405C118.851 26.0005 118.229 26.8574 117.131 26.8574ZM122.057 28H123.637V23.9565C123.637 22.9155 124.221 22.2554 125.161 22.2554C126.119 22.2554 126.557 22.8013 126.557 23.8804V28H128.138V23.5122C128.138 21.8618 127.293 20.9287 125.745 20.9287C124.742 20.9287 124.075 21.3794 123.745 22.1221H123.637V21.062H122.057V28ZM133.47 28H135.05V23.7788C135.05 22.9155 135.622 22.2554 136.402 22.2554C137.177 22.2554 137.653 22.7314 137.653 23.4995V28H139.233V23.6646C139.233 22.8711 139.767 22.2554 140.592 22.2554C141.436 22.2554 141.849 22.7124 141.849 23.6138V28H143.429V23.2266C143.429 21.7856 142.591 20.9287 141.195 20.9287C140.23 20.9287 139.43 21.4238 139.094 22.1792H138.986C138.688 21.4111 138.002 20.9287 137.062 20.9287C136.155 20.9287 135.457 21.3667 135.158 22.1411H135.05V21.062H133.47V28ZM145.829 30.4375C147.365 30.4375 148.158 29.8853 148.755 28.146L151.243 21.062H149.58L147.968 26.4829H147.847L146.229 21.062H144.502L146.984 28.0063L146.901 28.3237C146.73 28.9521 146.343 29.2188 145.695 29.2188C145.53 29.2188 145.353 29.2124 145.226 29.1997V30.4121C145.416 30.4312 145.638 30.4375 145.829 30.4375Z" fill="white"/>
<path d="M189.708 30.4375C191.244 30.4375 192.037 29.8853 192.634 28.146L195.122 21.062H193.459L191.847 26.4829H191.726L190.107 21.062H188.381L190.863 28.0063L190.78 28.3237C190.609 28.9521 190.222 29.2188 189.574 29.2188C189.409 29.2188 189.231 29.2124 189.104 29.1997V30.4121C189.295 30.4312 189.517 30.4375 189.708 30.4375ZM199.172 28.1396C201.057 28.1396 201.984 27.0542 202.206 26.1592L202.225 26.1021H200.721L200.702 26.1465C200.549 26.4639 200.061 26.8955 199.204 26.8955C198.131 26.8955 197.458 26.1719 197.439 24.9277H202.289V24.4072C202.289 22.3125 201.07 20.9287 199.096 20.9287C197.122 20.9287 195.858 22.3569 195.858 24.5405V24.5469C195.858 26.7559 197.109 28.1396 199.172 28.1396ZM199.115 22.1665C199.997 22.1665 200.638 22.7314 200.746 23.8677H197.452C197.572 22.7632 198.232 22.1665 199.115 22.1665ZM205.761 28.1143C206.675 28.1143 207.411 27.7207 207.792 27.0479H207.9V28H209.461V23.2583C209.461 21.792 208.458 20.9287 206.675 20.9287C205.024 20.9287 203.907 21.7031 203.755 22.8711L203.749 22.9282H205.24L205.247 22.9028C205.405 22.4458 205.875 22.1855 206.599 22.1855C207.449 22.1855 207.9 22.5664 207.9 23.2583V23.855L206.116 23.9629C204.428 24.0645 203.482 24.7881 203.482 26.0259V26.0386C203.482 27.3018 204.44 28.1143 205.761 28.1143ZM205.043 25.9624V25.9497C205.043 25.3784 205.456 25.0547 206.338 24.9976L207.9 24.896V25.4546C207.9 26.2798 207.195 26.9019 206.243 26.9019C205.545 26.9019 205.043 26.5527 205.043 25.9624ZM211.359 28H212.94V23.9692C212.94 22.979 213.632 22.3506 214.686 22.3506C214.958 22.3506 215.219 22.3887 215.473 22.4395V21.0239C215.32 20.9795 215.073 20.9478 214.832 20.9478C213.917 20.9478 213.283 21.3857 213.048 22.1284H212.94V21.062H211.359V28ZM219.237 28.1396C220.944 28.1396 222.182 27.2573 222.182 25.937V25.9243C222.182 24.915 221.541 24.3374 220.183 24.0327L219.059 23.7852C218.31 23.6138 218.018 23.3662 218.018 22.96V22.9536C218.018 22.4331 218.526 22.0903 219.23 22.0903C219.973 22.0903 220.43 22.4458 220.544 22.8838L220.551 22.9028H222.036V22.8901C221.935 21.7666 220.925 20.9287 219.237 20.9287C217.599 20.9287 216.457 21.792 216.457 23.0425V23.0488C216.457 24.0708 217.085 24.6929 218.405 24.9849L219.529 25.2388C220.291 25.4102 220.595 25.6768 220.595 26.083V26.0957C220.595 26.6162 220.049 26.9717 219.262 26.9717C218.475 26.9717 218.012 26.6353 217.847 26.1528L217.84 26.1401H216.272V26.1528C216.406 27.3271 217.472 28.1396 219.237 28.1396ZM229.863 28.1396C231.57 28.1396 232.808 27.2573 232.808 25.937V25.9243C232.808 24.915 232.167 24.3374 230.809 24.0327L229.685 23.7852C228.936 23.6138 228.644 23.3662 228.644 22.96V22.9536C228.644 22.4331 229.152 22.0903 229.856 22.0903C230.599 22.0903 231.056 22.4458 231.17 22.8838L231.177 22.9028H232.662V22.8901C232.561 21.7666 231.551 20.9287 229.863 20.9287C228.225 20.9287 227.083 21.792 227.083 23.0425V23.0488C227.083 24.0708 227.711 24.6929 229.031 24.9849L230.155 25.2388C230.917 25.4102 231.221 25.6768 231.221 26.083V26.0957C231.221 26.6162 230.675 26.9717 229.888 26.9717C229.101 26.9717 228.638 26.6353 228.473 26.1528L228.466 26.1401H226.898V26.1528C227.032 27.3271 228.098 28.1396 229.863 28.1396ZM237.08 28.0317C237.385 28.0317 237.677 28.0063 237.905 27.9619V26.7432C237.715 26.7622 237.594 26.7686 237.372 26.7686C236.712 26.7686 236.439 26.4766 236.439 25.7847V22.2871H237.905V21.062H236.439V19.3608H234.833V21.062H233.754V22.2871H234.833V26.1592C234.833 27.4985 235.487 28.0317 237.08 28.0317ZM241.371 28.1143C242.285 28.1143 243.021 27.7207 243.402 27.0479H243.51V28H245.072V23.2583C245.072 21.792 244.069 20.9287 242.285 20.9287C240.635 20.9287 239.518 21.7031 239.365 22.8711L239.359 22.9282H240.851L240.857 22.9028C241.016 22.4458 241.485 22.1855 242.209 22.1855C243.06 22.1855 243.51 22.5664 243.51 23.2583V23.855L241.727 23.9629C240.038 24.0645 239.092 24.7881 239.092 26.0259V26.0386C239.092 27.3018 240.051 28.1143 241.371 28.1143ZM240.654 25.9624V25.9497C240.654 25.3784 241.066 25.0547 241.949 24.9976L243.51 24.896V25.4546C243.51 26.2798 242.806 26.9019 241.854 26.9019C241.155 26.9019 240.654 26.5527 240.654 25.9624ZM246.97 28H248.55V23.9692C248.55 22.979 249.242 22.3506 250.296 22.3506C250.569 22.3506 250.829 22.3887 251.083 22.4395V21.0239C250.931 20.9795 250.683 20.9478 250.442 20.9478C249.528 20.9478 248.893 21.3857 248.658 22.1284H248.55V21.062H246.97V28ZM255.425 28.0317C255.729 28.0317 256.021 28.0063 256.25 27.9619V26.7432C256.06 26.7622 255.939 26.7686 255.717 26.7686C255.057 26.7686 254.784 26.4766 254.784 25.7847V22.2871H256.25V21.062H254.784V19.3608H253.178V21.062H252.099V22.2871H253.178V26.1592C253.178 27.4985 253.832 28.0317 255.425 28.0317ZM258.637 19.9004C259.151 19.9004 259.576 19.4878 259.576 18.9673C259.576 18.4531 259.151 18.0342 258.637 18.0342C258.116 18.0342 257.691 18.4531 257.691 18.9673C257.691 19.4878 258.116 19.9004 258.637 19.9004ZM257.843 28H259.424V21.062H257.843V28ZM261.366 28H262.947V23.9565C262.947 22.9155 263.531 22.2554 264.47 22.2554C265.429 22.2554 265.867 22.8013 265.867 23.8804V28H267.447V23.5122C267.447 21.8618 266.603 20.9287 265.054 20.9287C264.051 20.9287 263.385 21.3794 263.055 22.1221H262.947V21.062H261.366V28ZM272.297 30.4375C274.322 30.4375 275.604 29.4282 275.604 27.8286V21.062H274.023V22.2046H273.941C273.547 21.4175 272.798 20.9478 271.84 20.9478C270.05 20.9478 268.958 22.3315 268.958 24.3374V24.3501C268.958 26.3179 270.05 27.6763 271.808 27.6763C272.767 27.6763 273.522 27.27 273.922 26.5273H274.03V27.854C274.03 28.7427 273.401 29.2441 272.322 29.2441C271.44 29.2441 270.913 28.9331 270.805 28.4888L270.799 28.4697H269.218L269.212 28.4888C269.371 29.6567 270.469 30.4375 272.297 30.4375ZM272.297 26.4194C271.199 26.4194 270.577 25.5752 270.577 24.3501V24.3374C270.577 23.1123 271.199 22.2617 272.297 22.2617C273.389 22.2617 274.055 23.1123 274.055 24.3374V24.3501C274.055 25.5752 273.395 26.4194 272.297 26.4194ZM281.514 28H283.094V22.2871H284.573V21.062H283.069V20.4653C283.069 19.8052 283.354 19.4497 284.097 19.4497C284.319 19.4497 284.516 19.4624 284.637 19.4814V18.377C284.383 18.3325 284.097 18.3135 283.761 18.3135C282.218 18.3135 281.514 18.9927 281.514 20.3765V21.062H280.377V22.2871H281.514V28ZM286.097 28H287.677V23.9692C287.677 22.979 288.369 22.3506 289.423 22.3506C289.696 22.3506 289.956 22.3887 290.21 22.4395V21.0239C290.058 20.9795 289.81 20.9478 289.569 20.9478C288.655 20.9478 288.02 21.3857 287.785 22.1284H287.677V21.062H286.097V28ZM294.323 28.1396C296.399 28.1396 297.662 26.7812 297.662 24.5342V24.5215C297.662 22.2871 296.393 20.9287 294.323 20.9287C292.26 20.9287 290.984 22.2935 290.984 24.5215V24.5342C290.984 26.7812 292.241 28.1396 294.323 28.1396ZM294.323 26.8574C293.225 26.8574 292.597 26.0005 292.597 24.5405V24.5278C292.597 23.0679 293.225 22.2046 294.323 22.2046C295.415 22.2046 296.043 23.0679 296.043 24.5278V24.5405C296.043 26.0005 295.421 26.8574 294.323 26.8574ZM299.249 28H300.83V23.7788C300.83 22.9155 301.401 22.2554 302.182 22.2554C302.956 22.2554 303.432 22.7314 303.432 23.4995V28H305.013V23.6646C305.013 22.8711 305.546 22.2554 306.371 22.2554C307.215 22.2554 307.628 22.7124 307.628 23.6138V28H309.208V23.2266C309.208 21.7856 308.371 20.9287 306.974 20.9287C306.009 20.9287 305.209 21.4238 304.873 22.1792H304.765C304.467 21.4111 303.781 20.9287 302.842 20.9287C301.934 20.9287 301.236 21.3667 300.938 22.1411H300.83V21.062H299.249V28Z" fill="white"/>
<path d="M165.272 28.1841C167.303 28.1841 168.693 27.0605 168.693 25.4482V25.4355C168.693 24.166 167.798 23.3662 166.453 23.2393V23.2075C167.551 22.979 168.37 22.2236 168.37 21.0874V21.0747C168.37 19.6401 167.145 18.6562 165.259 18.6562C163.412 18.6562 162.162 19.6973 162.022 21.2842L162.016 21.354H163.539L163.545 21.2905C163.628 20.4717 164.294 19.9575 165.259 19.9575C166.237 19.9575 166.802 20.4526 166.802 21.2905V21.3032C166.802 22.103 166.129 22.6743 165.12 22.6743H164.072V23.8931H165.151C166.326 23.8931 167.037 24.4263 167.037 25.3911V25.4038C167.037 26.2544 166.332 26.8447 165.272 26.8447C164.199 26.8447 163.482 26.2925 163.393 25.5181L163.387 25.4482H161.825L161.832 25.5244C161.952 27.0923 163.266 28.1841 165.272 28.1841ZM173.771 28.2285C175.752 28.2285 177.142 26.9272 177.142 25.0229V25.0103C177.142 23.2583 175.904 21.9888 174.197 21.9888C173.333 21.9888 172.623 22.3569 172.242 22.9727H172.134L172.388 20.186H176.609V18.8403H171.112L170.667 24.2041H172.07C172.178 24.001 172.331 23.8232 172.496 23.6836C172.832 23.3789 173.276 23.2266 173.791 23.2266C174.838 23.2266 175.587 23.9756 175.587 25.042V25.0547C175.587 26.1338 174.851 26.8892 173.778 26.8892C172.838 26.8892 172.146 26.2925 172.026 25.5435L172.02 25.499H170.509L170.515 25.5815C170.636 27.0859 171.899 28.2285 173.771 28.2285Z" fill="white"/>
<path d="M324.316 28.2285C326.494 28.2285 327.814 26.3813 327.814 23.4233V23.4106C327.814 20.4526 326.494 18.6118 324.316 18.6118C322.139 18.6118 320.832 20.4526 320.832 23.4106V23.4233C320.832 26.3813 322.139 28.2285 324.316 28.2285ZM324.316 26.9019C323.148 26.9019 322.482 25.5942 322.482 23.4233V23.4106C322.482 21.2397 323.148 19.9448 324.316 19.9448C325.484 19.9448 326.164 21.2397 326.164 23.4106V23.4233C326.164 25.5942 325.484 26.9019 324.316 26.9019ZM332.854 18.6118C330.867 18.6118 329.452 19.9702 329.452 21.8301V21.8428C329.452 23.582 330.683 24.8643 332.441 24.8643C333.698 24.8643 334.498 24.2231 334.834 23.4995H334.961C334.961 23.5693 334.955 23.6392 334.955 23.709C334.885 25.4609 334.27 26.8828 332.816 26.8828C332.01 26.8828 331.445 26.4639 331.204 25.8228L331.185 25.7593H329.572L329.585 25.8291C329.877 27.2319 331.134 28.2285 332.816 28.2285C335.12 28.2285 336.51 26.4004 336.51 23.3154V23.3027C336.51 20.002 334.809 18.6118 332.854 18.6118ZM332.848 23.6074C331.807 23.6074 331.051 22.8457 331.051 21.7856V21.7729C331.051 20.751 331.857 19.9448 332.867 19.9448C333.882 19.9448 334.676 20.7637 334.676 21.811V21.8237C334.676 22.8584 333.882 23.6074 332.848 23.6074ZM341.519 18.377H340.046L337.316 30.3042H338.789L341.519 18.377ZM345.848 28.2285C348.025 28.2285 349.345 26.3813 349.345 23.4233V23.4106C349.345 20.4526 348.025 18.6118 345.848 18.6118C343.67 18.6118 342.363 20.4526 342.363 23.4106V23.4233C342.363 26.3813 343.67 28.2285 345.848 28.2285ZM345.848 26.9019C344.68 26.9019 344.013 25.5942 344.013 23.4233V23.4106C344.013 21.2397 344.68 19.9448 345.848 19.9448C347.016 19.9448 347.695 21.2397 347.695 23.4106V23.4233C347.695 25.5942 347.016 26.9019 345.848 26.9019ZM354.385 18.6118C352.398 18.6118 350.983 19.9702 350.983 21.8301V21.8428C350.983 23.582 352.214 24.8643 353.973 24.8643C355.229 24.8643 356.029 24.2231 356.366 23.4995H356.493C356.493 23.5693 356.486 23.6392 356.486 23.709C356.417 25.4609 355.801 26.8828 354.347 26.8828C353.541 26.8828 352.976 26.4639 352.735 25.8228L352.716 25.7593H351.104L351.116 25.8291C351.408 27.2319 352.665 28.2285 354.347 28.2285C356.651 28.2285 358.042 26.4004 358.042 23.3154V23.3027C358.042 20.002 356.34 18.6118 354.385 18.6118ZM354.379 23.6074C353.338 23.6074 352.583 22.8457 352.583 21.7856V21.7729C352.583 20.751 353.389 19.9448 354.398 19.9448C355.414 19.9448 356.207 20.7637 356.207 21.811V21.8237C356.207 22.8584 355.414 23.6074 354.379 23.6074ZM363.05 18.377H361.577L358.848 30.3042H360.32L363.05 18.377ZM366.3 28H367.938V18.8403H366.306L363.913 20.5225V22.0649L366.192 20.4526H366.3V28ZM373.733 18.6118C371.746 18.6118 370.331 19.9702 370.331 21.8301V21.8428C370.331 23.582 371.562 24.8643 373.32 24.8643C374.577 24.8643 375.377 24.2231 375.713 23.4995H375.84C375.84 23.5693 375.834 23.6392 375.834 23.709C375.764 25.4609 375.148 26.8828 373.695 26.8828C372.889 26.8828 372.324 26.4639 372.083 25.8228L372.063 25.7593H370.451L370.464 25.8291C370.756 27.2319 372.013 28.2285 373.695 28.2285C375.999 28.2285 377.389 26.4004 377.389 23.3154V23.3027C377.389 20.002 375.688 18.6118 373.733 18.6118ZM373.727 23.6074C372.686 23.6074 371.93 22.8457 371.93 21.7856V21.7729C371.93 20.751 372.736 19.9448 373.746 19.9448C374.761 19.9448 375.555 20.7637 375.555 21.811V21.8237C375.555 22.8584 374.761 23.6074 373.727 23.6074ZM382.404 18.6118C380.417 18.6118 379.001 19.9702 379.001 21.8301V21.8428C379.001 23.582 380.233 24.8643 381.991 24.8643C383.248 24.8643 384.048 24.2231 384.384 23.4995H384.511C384.511 23.5693 384.505 23.6392 384.505 23.709C384.435 25.4609 383.819 26.8828 382.366 26.8828C381.56 26.8828 380.995 26.4639 380.753 25.8228L380.734 25.7593H379.122L379.135 25.8291C379.427 27.2319 380.684 28.2285 382.366 28.2285C384.67 28.2285 386.06 26.4004 386.06 23.3154V23.3027C386.06 20.002 384.359 18.6118 382.404 18.6118ZM382.397 23.6074C381.356 23.6074 380.601 22.8457 380.601 21.7856V21.7729C380.601 20.751 381.407 19.9448 382.417 19.9448C383.432 19.9448 384.226 20.7637 384.226 21.811V21.8237C384.226 22.8584 383.432 23.6074 382.397 23.6074ZM391.183 28.2285C393.36 28.2285 394.68 26.3813 394.68 23.4233V23.4106C394.68 20.4526 393.36 18.6118 391.183 18.6118C389.005 18.6118 387.698 20.4526 387.698 23.4106V23.4233C387.698 26.3813 389.005 28.2285 391.183 28.2285ZM391.183 26.9019C390.015 26.9019 389.348 25.5942 389.348 23.4233V23.4106C389.348 21.2397 390.015 19.9448 391.183 19.9448C392.351 19.9448 393.03 21.2397 393.03 23.4106V23.4233C393.03 25.5942 392.351 26.9019 391.183 26.9019Z" fill="white"/>
<rect x="156.5" y="13.5" width="27" height="19" rx="1.5" stroke="#353133"/>
<rect x="315.5" y="13.5" width="85" height="19" rx="1.5" stroke="#353133"/>
</svg>
