<svg width="32" height="32" viewBox="0 0 32 32" fill="none" xmlns="http://www.w3.org/2000/svg">
<style>
      path {
        fill: black;
      }
@media (prefers-color-scheme: dark) {
      path {
        fill: white;
      }
    }
</style>
<g clip-path="url(#clip0)">
<path fill-rule="evenodd" clip-rule="evenodd" d="M24.7926 27.0427L24.7874 22.9076L28.2885 22.9199L28.4413 27.2272L24.7926 27.0427ZM22.7925 26.9415L18.3416 26.7164L18.6473 22.8862L22.7874 22.9006L22.7925 26.9415ZM16.3433 26.6154L16.6415 22.8791L12.9438 22.8662L12.4685 26.4194L16.3433 26.6154ZM10.4643 26.318L10.927 22.8592L7.37279 22.8467L6.66866 26.1261L10.4643 26.318ZM4.64506 26.0237L5.32874 22.8396L2.09117 22.8283L1.12787 25.8458L4.64506 26.0237ZM2.72892 20.8305L5.75786 20.8411L6.7162 16.3779L4.15569 16.3611L2.72892 20.8305ZM4.79284 14.3653L7.14504 14.3806L7.9041 10.8455L5.90263 10.8888L4.79284 14.3653ZM6.54569 8.87443L8.33564 8.8357L9.03529 5.57729L7.57003 5.66569L6.54569 8.87443ZM11.1077 5.45227L10.3908 8.79123L12.8158 8.73875L13.2729 5.32166L11.1077 5.45227ZM15.3071 5.19894L14.8394 8.69495L17.7783 8.63135L18.0655 5.03253L15.3071 5.19894ZM20.0815 4.91091L19.7882 8.58786L22.7693 8.52334L22.7646 4.74905L20.0815 4.91091ZM24.7644 4.62841L24.7693 8.48006L27.774 8.41504L27.6335 4.45533L24.7644 4.62841ZM27.8449 10.414L24.7718 10.4805L24.7769 14.4958L27.9904 14.5168L27.8449 10.414ZM28.0614 16.5173L24.7794 16.4959L24.7849 20.9076L28.2175 20.9196L28.0614 16.5173ZM22.7794 16.4828L22.7849 20.9006L18.8068 20.8867L19.1601 16.4592L22.7794 16.4828ZM17.1548 16.4461L16.801 20.8797L13.2112 20.8671L13.8055 16.4242L17.1548 16.4461ZM11.7895 16.411L11.1944 20.8601L7.80191 20.8482L8.75891 16.3912L11.7895 16.411ZM12.0568 14.4127L9.18776 14.394L9.95924 10.801L12.5474 10.745L12.0568 14.4127ZM14.0728 14.4259L14.5711 10.7012L17.6184 10.6353L17.3143 14.4471L14.0728 14.4259ZM19.3196 14.4602L19.6283 10.5918L22.7719 10.5238L22.7768 14.4828L19.3196 14.4602Z" fill="yellow"/>
</g>
<defs>
<clipPath id="clip0">
<rect width="32" height="32"/>
</clipPath>
</defs>
</svg>
