<svg width="157" height="40" viewBox="0 0 157 40" fill="none" xmlns="http://www.w3.org/2000/svg">
<g clip-path="url(#clip0)">
<path d="M148.577 39.9874C148.272 39.9942 147.96 39.9981 147.655 39.9981L148.577 39.9874ZM148.577 39.9874C149.247 39.9791 149.916 39.92 150.577 39.8106L148.577 39.9874ZM7.52688 0.514799L7.52688 0.514795C6.88111 0.522395 6.23686 0.579183 5.59972 0.684667C4.98842 0.788365 4.39627 0.983684 3.84323 1.26403C3.29228 1.54627 2.78884 1.91292 2.35117 2.35071L2.34974 2.35213C1.91061 2.78786 1.54455 3.29151 1.26566 3.8437L1.26522 3.84456C0.984296 4.39814 0.7895 4.99135 0.687563 5.60371L0.68742 5.60457C0.580364 6.24082 0.522757 6.88439 0.515115 7.52953L0.515006 7.53874L0.514921 7.53874C0.508754 7.74249 0.506379 7.94341 0.503943 8.1494C0.502782 8.24764 0.501607 8.34704 0.5 8.44844V31.5548C0.501585 31.6561 0.502751 31.7545 0.5039 31.8514C0.50635 32.0581 0.508721 32.2581 0.514917 32.4657L0.515186 32.4747H0.515105C0.52275 33.1198 0.580357 33.7634 0.687409 34.3996L0.687599 34.4007C0.789235 35.0133 0.98401 35.6068 1.26516 36.1605L1.26539 36.1609C1.54397 36.7109 1.90982 37.2122 2.34872 37.6452L2.35264 37.6491L2.35262 37.6491C2.78791 38.0881 3.29086 38.4543 3.84229 38.7339L3.84285 38.7341C4.39619 39.0155 4.98864 39.2122 5.60039 39.3176C6.23765 39.4222 6.88185 39.479 7.52759 39.4875L7.532 39.4875C7.83808 39.4943 8.13807 39.4981 8.43995 39.4981H8.44268C8.80681 39.5001 9.16778 39.5001 9.53468 39.5001H146.571C146.931 39.5001 147.295 39.5001 147.652 39.4981L147.655 39.4981C147.956 39.4981 148.265 39.4943 148.566 39.4876L148.571 39.4874C149.215 39.4794 149.858 39.4226 150.494 39.3175C151.109 39.2112 151.704 39.0144 152.26 38.7335C152.811 38.4538 153.313 38.0878 153.747 37.6492L153.75 37.6463C154.189 37.211 154.556 36.7095 154.839 36.1601C155.117 35.6064 155.31 35.0135 155.41 34.4018L155.41 34.3994C155.518 33.7622 155.577 33.1178 155.589 32.4717C155.593 32.1657 155.593 31.8688 155.593 31.5587V31.548L155.593 31.548C155.601 31.191 155.601 30.835 155.601 30.4649V9.53626C155.601 9.16913 155.601 8.81125 155.593 8.45523L155.593 8.44447C155.593 8.13816 155.593 7.8346 155.589 7.53254C155.577 6.88637 155.518 6.24195 155.41 5.60465L155.41 5.60255C155.309 4.99115 155.117 4.39856 154.839 3.84503C154.269 2.7362 153.367 1.83355 152.258 1.26383C151.702 0.984178 151.107 0.78891 150.494 0.68446C149.858 0.578585 149.216 0.521817 148.572 0.514659L148.569 0.514632C148.513 0.51372 148.456 0.512784 148.399 0.511847L7.52688 0.514799ZM7.52688 0.514799L7.52891 0.514767M7.52688 0.514799L7.52891 0.514767M7.52891 0.514767C7.59386 0.51374 7.65832 0.512677 7.72241 0.511619C7.96541 0.507611 8.20317 0.503689 8.44293 0.502121L7.52891 0.514767ZM146.571 0.50013H147.007H9.53468H146.571Z" stroke="white"/>
<path d="M24.77 20.3013C24.7807 19.4666 25.0024 18.6483 25.4145 17.9223C25.8265 17.1964 26.4154 16.5864 27.1265 16.1492C26.6748 15.5041 26.0788 14.9731 25.386 14.5986C24.6932 14.224 23.9226 14.0162 23.1354 13.9916C21.4561 13.8153 19.8282 14.9964 18.9725 14.9964C18.1002 14.9964 16.7827 14.0091 15.364 14.0383C14.4463 14.0679 13.5519 14.3348 12.7681 14.8128C11.9842 15.2909 11.3375 15.9638 10.891 16.7661C8.95705 20.1145 10.3996 25.0356 12.2522 27.7422C13.1791 29.0676 14.2624 30.548 15.6799 30.4955C17.0669 30.438 17.585 29.611 19.2593 29.611C20.918 29.611 21.4041 30.4955 22.8503 30.4621C24.3387 30.438 25.2764 29.1309 26.1708 27.793C26.8368 26.8486 27.3492 25.8049 27.6892 24.7005C26.8245 24.3347 26.0866 23.7226 25.5675 22.9403C25.0483 22.158 24.771 21.2402 24.77 20.3013V20.3013Z" fill="white"/>
<path d="M22.0395 12.2113C22.8511 11.2371 23.2509 9.98494 23.154 8.7207C21.9142 8.85092 20.769 9.44348 19.9465 10.3803C19.5443 10.838 19.2363 11.3704 19.0401 11.9472C18.8438 12.524 18.7632 13.1337 18.8028 13.7417C19.4229 13.7481 20.0364 13.6137 20.5971 13.3486C21.1577 13.0835 21.6509 12.6946 22.0395 12.2113Z" fill="white"/>
<path d="M46.1484 30.4961V21.3565H46.0879L42.3447 30.4014H40.916L37.1631 21.3565H37.1035V30.4961H35.3477V18.0781H37.5771L41.5957 27.8799H41.6641L45.6748 18.0781H47.9121V30.4961L46.1484 30.4961Z" fill="white"/>
<path d="M49.3945 27.9229C49.3945 26.3399 50.6074 25.3838 52.7598 25.2549L55.2383 25.1172V24.4287C55.2383 23.4219 54.5752 22.8535 53.4473 22.8535C53.0295 22.798 52.6058 22.8968 52.2558 23.1314C51.9057 23.3661 51.6533 23.7204 51.5459 24.1279H49.8076C49.8594 22.4922 51.3828 21.3311 53.499 21.3311C55.6592 21.3311 57.0879 22.5098 57.0879 24.2911V30.4961H55.3067V29.0069H55.2637C54.9784 29.5119 54.5627 29.9309 54.06 30.2202C53.5573 30.5095 52.9862 30.6584 52.4062 30.6514C52.0254 30.6887 51.6409 30.6459 51.2775 30.5257C50.9142 30.4056 50.58 30.2108 50.2963 29.9539C50.0127 29.6969 49.786 29.3835 49.6307 29.0337C49.4754 28.684 49.3949 28.3056 49.3945 27.9229V27.9229ZM55.2383 27.1055V26.4082L53.0088 26.5459C51.8984 26.6153 51.2705 27.0967 51.2705 27.8711C51.2705 28.6631 51.9248 29.1797 52.9229 29.1797C53.2119 29.1993 53.502 29.1609 53.7759 29.0666C54.0499 28.9724 54.3022 28.8242 54.518 28.6309C54.7338 28.4376 54.9087 28.203 55.0324 27.941C55.1561 27.6791 55.2261 27.395 55.2383 27.1055H55.2383Z" fill="white"/>
<path d="M64.8945 24.5579C64.8133 24.0627 64.5487 23.6161 64.1534 23.3069C63.7581 22.9978 63.261 22.8486 62.7607 22.889C61.332 22.889 60.3857 24.0853 60.3857 25.97C60.3857 27.8978 61.3408 29.0589 62.7773 29.0589C63.2709 29.1083 63.7648 28.9676 64.1582 28.6655C64.5516 28.3634 64.8149 27.9225 64.8945 27.4329H66.6845C66.5732 28.3691 66.1008 29.2249 65.3679 29.8181C64.635 30.4112 63.6996 30.6949 62.7607 30.6087C60.1787 30.6087 58.4922 28.8441 58.4922 25.9701C58.4922 23.1556 60.1787 21.3314 62.7432 21.3314C63.689 21.2512 64.6286 21.5436 65.3618 22.1464C66.095 22.7492 66.5637 23.6145 66.668 24.5579H64.8945Z" fill="white"/>
<path d="M78.7578 27.1397H74.0244L72.8877 30.4961H70.8828L75.3662 18.0781H77.4492L81.9326 30.4961H79.8935L78.7578 27.1397ZM74.5147 25.5908H78.2667L76.417 20.1436H76.3653L74.5147 25.5908Z" fill="white"/>
<path d="M91.6182 25.9695C91.6182 28.7829 90.1123 30.5905 87.8398 30.5905C87.2642 30.6207 86.6917 30.4881 86.1879 30.2079C85.6841 29.9278 85.2694 29.5114 84.9912 29.0065H84.9482V33.4909H83.0898V21.4421H84.8887V22.948H84.9229C85.2138 22.4455 85.6355 22.0313 86.1432 21.7495C86.6508 21.4676 87.2253 21.3287 87.8057 21.3474C90.1035 21.3474 91.6182 23.1638 91.6182 25.9695ZM89.708 25.9695C89.708 24.1365 88.7607 22.9314 87.3154 22.9314C85.8955 22.9314 84.9404 24.1618 84.9404 25.9695C84.9404 27.7937 85.8955 29.0154 87.3154 29.0154C88.7607 29.0154 89.708 27.8191 89.708 25.9695Z" fill="white"/>
<path d="M101.579 25.9695C101.579 28.7829 100.073 30.5905 97.8008 30.5905C97.2252 30.6207 96.6527 30.4881 96.1489 30.2079C95.6451 29.9278 95.2304 29.5114 94.9522 29.0065H94.9092V33.4909H93.0508V21.4421H94.8496V22.948H94.8838C95.1748 22.4455 95.5965 22.0313 96.1041 21.7495C96.6117 21.4676 97.1863 21.3287 97.7666 21.3474C100.064 21.3474 101.579 23.1638 101.579 25.9695ZM99.669 25.9695C99.669 24.1365 98.7217 22.9314 97.2764 22.9314C95.8565 22.9314 94.9014 24.1618 94.9014 25.9695C94.9014 27.7937 95.8565 29.0154 97.2764 29.0154C98.7217 29.0154 99.669 27.8191 99.669 25.9695H99.669Z" fill="white"/>
<path d="M108.168 27.0362C108.306 28.2676 109.502 29.0762 111.137 29.0762C112.703 29.0762 113.83 28.2676 113.83 27.1572C113.83 26.1934 113.15 25.6162 111.541 25.2207L109.932 24.833C107.651 24.2822 106.593 23.2158 106.593 21.4854C106.593 19.3428 108.46 17.8711 111.111 17.8711C113.735 17.8711 115.534 19.3428 115.595 21.4854H113.719C113.606 20.2461 112.582 19.4981 111.085 19.4981C109.588 19.4981 108.563 20.2549 108.563 21.3565C108.563 22.2344 109.218 22.751 110.818 23.1465L112.187 23.4824C114.734 24.0849 115.793 25.1084 115.793 26.9248C115.793 29.248 113.942 30.7031 110.999 30.7031C108.245 30.7031 106.386 29.2822 106.266 27.0361L108.168 27.0362Z" fill="white"/>
<path d="M119.801 19.2998V21.4424H121.522V22.9141H119.801V27.9053C119.801 28.6807 120.146 29.042 120.902 29.042C121.107 29.0384 121.311 29.0241 121.514 28.999V30.4619C121.173 30.5255 120.828 30.5543 120.481 30.5478C118.648 30.5478 117.934 29.8593 117.934 28.1035V22.9141H116.617V21.4424H117.934V19.2998H119.801Z" fill="white"/>
<path d="M122.52 25.9697C122.52 23.1211 124.197 21.3311 126.813 21.3311C129.438 21.3311 131.108 23.1211 131.108 25.9697C131.108 28.8262 129.447 30.6084 126.813 30.6084C124.181 30.6084 122.52 28.8262 122.52 25.9697ZM129.215 25.9697C129.215 24.0156 128.319 22.8623 126.813 22.8623C125.308 22.8623 124.412 24.0244 124.412 25.9697C124.412 27.9316 125.308 29.0762 126.813 29.0762C128.319 29.0762 129.215 27.9316 129.215 25.9697H129.215Z" fill="white"/>
<path d="M132.645 21.442H134.417V22.983H134.46C134.58 22.5017 134.862 22.0764 135.258 21.7785C135.655 21.4806 136.142 21.3284 136.638 21.3473C136.852 21.3465 137.065 21.3698 137.274 21.4166V23.1549C137.004 23.0723 136.722 23.0343 136.439 23.0426C136.169 23.0316 135.9 23.0792 135.65 23.1821C135.401 23.285 135.176 23.4408 134.992 23.6386C134.808 23.8365 134.669 24.0719 134.585 24.3286C134.5 24.5852 134.472 24.8571 134.503 25.1256V30.4957H132.645V21.442Z" fill="white"/>
<path d="M145.839 27.8369C145.589 29.4805 143.988 30.6084 141.94 30.6084C139.307 30.6084 137.672 28.8437 137.672 26.0127C137.672 23.1729 139.315 21.3311 141.862 21.3311C144.367 21.3311 145.942 23.0518 145.942 25.7969V26.4336H139.548V26.5459C139.518 26.8791 139.56 27.2148 139.67 27.5306C139.78 27.8464 139.957 28.1352 140.187 28.3778C140.417 28.6203 140.697 28.8111 141.006 28.9374C141.316 29.0637 141.649 29.1226 141.983 29.1103C142.423 29.1515 142.863 29.0498 143.24 28.8203C143.617 28.5909 143.909 28.246 144.074 27.8369L145.839 27.8369ZM139.557 25.1348H144.083C144.1 24.8352 144.054 24.5354 143.95 24.2541C143.845 23.9729 143.683 23.7164 143.475 23.5006C143.266 23.2849 143.015 23.1145 142.738 23.0003C142.46 22.8861 142.162 22.8305 141.862 22.8369C141.56 22.8351 141.26 22.8933 140.98 23.008C140.7 23.1227 140.445 23.2918 140.231 23.5054C140.016 23.7191 139.846 23.973 139.731 24.2527C139.615 24.5323 139.556 24.8321 139.557 25.1348L139.557 25.1348Z" fill="white"/>
<path d="M37.8271 8.73138C38.2168 8.70342 38.6077 8.76228 38.9718 8.90371C39.3359 9.04515 39.6641 9.26563 39.9327 9.54925C40.2013 9.83288 40.4036 10.1726 40.525 10.5438C40.6464 10.9151 40.6839 11.3087 40.6348 11.6962C40.6348 13.6025 39.6045 14.6982 37.8271 14.6982H35.6719V8.73138H37.8271ZM36.5986 13.8544H37.7236C38.002 13.871 38.2806 13.8254 38.5392 13.7208C38.7977 13.6161 39.0297 13.4552 39.2182 13.2496C39.4067 13.0441 39.5469 12.7991 39.6288 12.5324C39.7107 12.2658 39.7321 11.9843 39.6914 11.7084C39.7291 11.4335 39.7056 11.1538 39.6224 10.8891C39.5393 10.6244 39.3987 10.3814 39.2106 10.1775C39.0226 9.97358 38.7917 9.81378 38.5346 9.70954C38.2776 9.6053 38.0006 9.55922 37.7236 9.57459H36.5986V13.8544Z" fill="white"/>
<path d="M41.6819 12.4448C41.6536 12.1489 41.6875 11.8503 41.7813 11.5682C41.8751 11.2862 42.0269 11.0268 42.2268 10.8068C42.4268 10.5868 42.6705 10.4111 42.9423 10.2908C43.2142 10.1705 43.5082 10.1084 43.8055 10.1084C44.1027 10.1084 44.3967 10.1705 44.6686 10.2908C44.9404 10.4111 45.1841 10.5868 45.3841 10.8068C45.584 11.0268 45.7358 11.2862 45.8296 11.5682C45.9235 11.8503 45.9573 12.1489 45.929 12.4448C45.9578 12.741 45.9244 13.04 45.8308 13.3225C45.7372 13.605 45.5855 13.8648 45.3855 14.0853C45.1856 14.3057 44.9417 14.4818 44.6695 14.6023C44.3974 14.7229 44.1031 14.7851 43.8055 14.7851C43.5078 14.7851 43.2135 14.7229 42.9414 14.6023C42.6693 14.4818 42.4254 14.3057 42.2254 14.0853C42.0254 13.8648 41.8737 13.605 41.7801 13.3225C41.6865 13.04 41.6531 12.741 41.6819 12.4448V12.4448ZM45.0149 12.4448C45.0149 11.4687 44.5764 10.8979 43.8069 10.8979C43.0345 10.8979 42.5999 11.4687 42.5999 12.4448C42.5999 13.4287 43.0345 13.9951 43.8069 13.9951C44.5765 13.9951 45.0149 13.4248 45.0149 12.4448H45.0149Z" fill="white"/>
<path d="M51.5742 14.6982H50.6523L49.7217 11.3818H49.6514L48.7246 14.6982H47.8115L46.5703 10.1953H47.4717L48.2783 13.6313H48.3447L49.2705 10.1953H50.1231L51.0488 13.6313H51.1191L51.9219 10.1953H52.8105L51.5742 14.6982Z" fill="white"/>
<path d="M53.8555 10.1949H54.7109V10.9102H54.7773C54.89 10.6533 55.08 10.4379 55.3209 10.2941C55.5617 10.1503 55.8415 10.0852 56.1211 10.1079C56.3402 10.0915 56.5602 10.1245 56.7648 10.2046C56.9694 10.2847 57.1533 10.4098 57.303 10.5707C57.4527 10.7315 57.5643 10.924 57.6295 11.1338C57.6947 11.3436 57.7118 11.5654 57.6797 11.7827V14.6977H56.791V12.0059C56.791 11.2823 56.4766 10.9224 55.8193 10.9224C55.6706 10.9155 55.5221 10.9408 55.384 10.9966C55.246 11.0525 55.1216 11.1375 55.0195 11.2459C54.9174 11.3543 54.8399 11.4834 54.7924 11.6246C54.7448 11.7657 54.7284 11.9154 54.7441 12.0635V14.6978H53.8555L53.8555 10.1949Z" fill="white"/>
<path d="M59.0938 8.4375H59.9824V14.6982H59.0938V8.4375Z" fill="white"/>
<path d="M61.2171 12.4448C61.1888 12.1489 61.2226 11.8503 61.3165 11.5682C61.4103 11.2862 61.5621 11.0268 61.762 10.8068C61.9619 10.5868 62.2057 10.4111 62.4775 10.2908C62.7494 10.1705 63.0433 10.1084 63.3406 10.1084C63.6379 10.1084 63.9319 10.1705 64.2037 10.2908C64.4756 10.4111 64.7193 10.5868 64.9192 10.8068C65.1192 11.0268 65.2709 11.2862 65.3648 11.5682C65.4586 11.8503 65.4925 12.1489 65.4641 12.4448C65.493 12.741 65.4595 13.04 65.366 13.3225C65.2724 13.605 65.1207 13.8648 64.9207 14.0853C64.7207 14.3057 64.4768 14.4818 64.2047 14.6023C63.9326 14.7229 63.6382 14.7851 63.3406 14.7851C63.043 14.7851 62.7487 14.7229 62.4765 14.6023C62.2044 14.4818 61.9605 14.3057 61.7605 14.0853C61.5605 13.8648 61.4089 13.605 61.3153 13.3225C61.2217 13.04 61.1882 12.741 61.2171 12.4448V12.4448ZM64.5501 12.4448C64.5501 11.4687 64.1116 10.8979 63.3421 10.8979C62.5696 10.8979 62.1351 11.4687 62.1351 12.4448C62.1351 13.4287 62.5696 13.9951 63.3421 13.9951C64.1116 13.9951 64.5501 13.4248 64.5501 12.4448H64.5501Z" fill="white"/>
<path d="M66.4023 13.4248C66.4023 12.6142 67.0059 12.147 68.0771 12.0806L69.2969 12.0102V11.6216C69.2969 11.146 68.9824 10.8774 68.375 10.8774C67.8789 10.8774 67.5352 11.0596 67.4365 11.3779H66.5762C66.667 10.6045 67.3945 10.1084 68.416 10.1084C69.5449 10.1084 70.1816 10.6704 70.1816 11.6216V14.6982H69.3262V14.0654H69.2559C69.1131 14.2924 68.9127 14.4775 68.6751 14.6017C68.4375 14.7259 68.1712 14.7848 67.9033 14.7724C67.7143 14.7921 67.5232 14.7719 67.3425 14.7132C67.1617 14.6545 66.9953 14.5586 66.8538 14.4316C66.7124 14.3047 66.5992 14.1495 66.5214 13.9761C66.4437 13.8026 66.4031 13.6149 66.4023 13.4248V13.4248ZM69.2969 13.04V12.6636L68.1973 12.7339C67.5771 12.7754 67.2959 12.9863 67.2959 13.3833C67.2959 13.7886 67.6474 14.0244 68.1309 14.0244C68.2725 14.0387 68.4156 14.0244 68.5516 13.9823C68.6876 13.9403 68.8138 13.8712 68.9226 13.7794C69.0313 13.6876 69.1205 13.5748 69.1848 13.4477C69.2491 13.3207 69.2872 13.1821 69.2969 13.04V13.04Z" fill="white"/>
<path d="M71.3477 12.4448C71.3477 11.022 72.0791 10.1206 73.2168 10.1206C73.4982 10.1077 73.7775 10.1751 74.022 10.315C74.2666 10.4548 74.4662 10.6615 74.5977 10.9106H74.6641V8.4375H75.5527V14.6982H74.7012V13.9868H74.6309C74.4893 14.2343 74.2826 14.4383 74.0334 14.5768C73.7841 14.7153 73.5017 14.783 73.2168 14.7724C72.0713 14.7725 71.3477 13.8711 71.3477 12.4448ZM72.2657 12.4448C72.2657 13.3999 72.7159 13.9746 73.4688 13.9746C74.2178 13.9746 74.6807 13.3916 74.6807 12.4487C74.6807 11.5103 74.2129 10.919 73.4688 10.919C72.7207 10.919 72.2656 11.4976 72.2656 12.4448H72.2657Z" fill="white"/>
<path d="M79.2288 12.4449C79.2005 12.1489 79.2344 11.8503 79.3282 11.5683C79.4221 11.2862 79.5739 11.0268 79.7738 10.8068C79.9738 10.5869 80.2175 10.4111 80.4894 10.2908C80.7613 10.1705 81.0553 10.1084 81.3525 10.1084C81.6498 10.1084 81.9438 10.1705 82.2157 10.2908C82.4876 10.4111 82.7313 10.5869 82.9313 10.8068C83.1312 11.0268 83.283 11.2862 83.3769 11.5683C83.4707 11.8503 83.5046 12.1489 83.4763 12.4449C83.5051 12.7411 83.4717 13.0401 83.378 13.3226C83.2844 13.6051 83.1327 13.8649 82.9327 14.0853C82.7327 14.3058 82.4888 14.4819 82.2167 14.6024C81.9445 14.7229 81.6502 14.7852 81.3525 14.7852C81.0549 14.7852 80.7606 14.7229 80.4884 14.6024C80.2163 14.4819 79.9724 14.3058 79.7724 14.0853C79.5724 13.8649 79.4207 13.6051 79.3271 13.3226C79.2334 13.0401 79.2 12.7411 79.2288 12.4449V12.4449ZM82.5618 12.4449C82.5618 11.4688 82.1233 10.898 81.3538 10.898C80.5813 10.898 80.1468 11.4688 80.1468 12.4449C80.1468 13.4288 80.5813 13.9952 81.3538 13.9952C82.1233 13.9952 82.5618 13.4248 82.5618 12.4449H82.5618Z" fill="white"/>
<path d="M84.6719 10.1949H85.5273V10.9102H85.5938C85.7064 10.6533 85.8964 10.4379 86.1373 10.2941C86.3782 10.1503 86.6579 10.0852 86.9375 10.1079C87.1566 10.0915 87.3766 10.1245 87.5812 10.2046C87.7858 10.2847 87.9698 10.4098 88.1194 10.5707C88.2691 10.7315 88.3807 10.924 88.4459 11.1338C88.5111 11.3436 88.5283 11.5654 88.4961 11.7827V14.6977H87.6074V12.0059C87.6074 11.2823 87.293 10.9224 86.6357 10.9224C86.487 10.9155 86.3385 10.9408 86.2004 10.9966C86.0624 11.0525 85.938 11.1375 85.8359 11.2459C85.7338 11.3543 85.6563 11.4834 85.6088 11.6246C85.5612 11.7657 85.5448 11.9154 85.5605 12.0635V14.6978H84.6719V10.1949Z" fill="white"/>
<path d="M93.5146 9.07422V10.2158H94.4902V10.9644H93.5146V13.2798C93.5146 13.7515 93.709 13.958 94.1514 13.958C94.2646 13.9576 94.3778 13.9508 94.4902 13.9375V14.6777C94.3307 14.7063 94.169 14.7215 94.0068 14.7231C93.0186 14.7231 92.625 14.3755 92.625 13.5073V10.9643H91.9102V10.2158H92.625V9.07422H93.5146Z" fill="white"/>
<path d="M95.707 8.4375H96.5879V10.919H96.6582C96.7763 10.6596 96.9716 10.443 97.2172 10.2987C97.4629 10.1543 97.7472 10.0893 98.0312 10.1123C98.2492 10.1004 98.467 10.1368 98.6693 10.2189C98.8716 10.3009 99.0533 10.4266 99.2014 10.5869C99.3495 10.7473 99.4604 10.9383 99.5262 11.1465C99.592 11.3546 99.611 11.5747 99.582 11.791V14.6982H98.6924V12.0103C98.6924 11.291 98.3574 10.9268 97.7295 10.9268C97.5768 10.9142 97.4232 10.9352 97.2794 10.9883C97.1356 11.0413 97.0052 11.1252 96.8972 11.2339C96.7892 11.3426 96.7062 11.4737 96.6542 11.6178C96.6021 11.7619 96.5822 11.9157 96.5957 12.0683V14.6982H95.7071L95.707 8.4375Z" fill="white"/>
<path d="M104.761 13.4825C104.641 13.894 104.379 14.25 104.022 14.4882C103.666 14.7263 103.237 14.8315 102.81 14.7852C102.514 14.7931 102.219 14.7362 101.946 14.6187C101.674 14.5012 101.43 14.3258 101.232 14.1046C101.034 13.8835 100.887 13.6219 100.8 13.3381C100.713 13.0543 100.69 12.755 100.73 12.461C100.691 12.1661 100.715 11.8662 100.801 11.5815C100.888 11.2969 101.035 11.0341 101.231 10.811C101.428 10.5879 101.671 10.4098 101.943 10.2886C102.214 10.1674 102.509 10.1059 102.806 10.1085C104.059 10.1085 104.815 10.9645 104.815 12.3785V12.6886H101.635V12.7384C101.621 12.9036 101.642 13.0699 101.696 13.2267C101.751 13.3834 101.837 13.5271 101.95 13.6486C102.063 13.7701 102.2 13.8666 102.352 13.932C102.504 13.9974 102.669 14.0302 102.835 14.0284C103.047 14.0539 103.263 14.0156 103.453 13.9184C103.644 13.8212 103.802 13.6694 103.906 13.4825L104.761 13.4825ZM101.635 12.0313H103.91C103.921 11.8802 103.9 11.7284 103.85 11.5857C103.799 11.443 103.718 11.3125 103.614 11.2026C103.51 11.0928 103.383 11.006 103.243 10.9478C103.103 10.8896 102.953 10.8614 102.801 10.8648C102.648 10.8629 102.495 10.8918 102.353 10.9497C102.21 11.0076 102.081 11.0935 101.972 11.2022C101.864 11.3109 101.778 11.4403 101.72 11.5827C101.662 11.7251 101.633 11.8776 101.635 12.0313H101.635Z" fill="white"/>
</g>
<defs>
<clipPath id="clip0">
<rect width="156.101" height="40" fill="white"/>
</clipPath>
</defs>
</svg>
